<?xml version="1.0" standalone="no"?>
<!DOCTYPE svg PUBLIC "-//W3C//DTD SVG 20010904//EN"
 "http://www.w3.org/TR/2001/REC-SVG-20010904/DTD/svg10.dtd">
<svg version="1.0" xmlns="http://www.w3.org/2000/svg"
 width="512.000000pt" height="512.000000pt" viewBox="0 0 512.000000 512.000000"
 preserveAspectRatio="xMidYMid meet">
<metadata>
Created by potrace 1.11, written by Peter Selinger 2001-2013
</metadata>
<g transform="translate(0.000000,512.000000) scale(0.100000,-0.100000)"
fill="#000000" stroke="none">
<path d="M2400 5114 c-644 -56 -1175 -291 -1619 -719 -418 -403 -679 -928
-762 -1535 -19 -140 -16 -487 5 -635 56 -393 194 -760 404 -1075 412 -620
1047 -1018 1797 -1126 148 -21 495 -24 635 -5 582 79 1070 312 1479 706 418
403 680 929 762 1535 17 122 17 478 0 600 -82 606 -344 1132 -762 1535 -401
387 -883 620 -1443 700 -101 15 -411 26 -496 19z m520 -462 c248 -45 498 -135
698 -253 560 -332 932 -870 1039 -1505 27 -165 25 -526 -4 -689 -141 -781
-679 -1407 -1421 -1654 -669 -224 -1389 -105 -1957 322 -103 78 -324 299 -402
402 -282 375 -433 824 -433 1285 0 394 109 776 318 1115 317 515 852 877 1442
975 169 28 167 28 395 25 159 -2 238 -8 325 -23z"/>
<path d="M1844 3341 c-42 -25 -72 -66 -80 -106 -13 -71 6 -97 249 -342 127
-128 234 -233 237 -233 3 0 13 18 23 40 24 51 92 120 145 145 23 11 42 22 42
25 0 3 -102 108 -227 232 -228 227 -268 258 -330 258 -15 0 -42 -9 -59 -19z"/>
<path d="M2945 3032 c-11 -2 -63 -47 -116 -99 l-96 -95 56 -54 56 -55 97 99
c106 107 115 128 78 174 -21 27 -43 36 -75 30z"/>
<path d="M2490 2698 c-48 -25 -90 -89 -90 -138 0 -49 42 -113 90 -137 24 -13
56 -23 70 -23 14 0 46 10 70 23 48 24 90 88 90 137 0 49 -42 113 -90 138 -24
12 -56 22 -70 22 -14 0 -46 -10 -70 -22z"/>
<path d="M2875 2560 l0 -80 487 0 c341 0 495 3 512 11 13 7 30 25 37 40 15 37
-2 82 -37 98 -17 8 -171 11 -512 11 l-487 0 0 -80z"/>
<path d="M1942 2050 c-296 -300 -333 -342 -334 -371 -1 -23 6 -39 26 -56 56
-47 55 -48 391 285 170 169 323 321 338 339 l28 32 -55 56 c-31 30 -57 55 -58
54 -2 -1 -153 -153 -336 -339z"/>
</g>
</svg>
